<svg xmlns="http://www.w3.org/2000/svg" viewBox="0 0 200 200" fill="none" role="img" aria-label="ROHLAX logo">
  <rect width="200" height="200" fill="#F6F4EF"/>
  <g clip-path="url(#L)">
    <circle cx="100" cy="100" r="54" fill="#0A1E38"/>
    <circle cx="100" cy="100" r="30" fill="#F6F4EF"/>
    <g fill="#0A1E38">
      <g transform="rotate(-15 100 100)"><rect x="86" y="24" width="28" height="16" rx="2"/></g>
      <g transform="rotate(-45 100 100)"><rect x="86" y="24" width="28" height="16" rx="2"/></g>
      <g transform="rotate(-75 100 100)"><rect x="86" y="24" width="28" height="16" rx="2"/></g>
      <g transform="rotate(-105 100 100)"><rect x="86" y="24" width="28" height="16" rx="2"/></g>
      <g transform="rotate(-135 100 100)"><rect x="86" y="24" width="28" height="16" rx="2"/></g>
      <g transform="rotate(-165 100 100)"><rect x="86" y="24" width="28" height="16" rx="2"/></g>
    </g>
  </g>
  <path d="M110 34 A66 66 0 0 1 110 166" stroke="#3B82F6" stroke-width="8.5" stroke-linecap="round" fill="none"/>
  <path d="M116 48 A50 50 0 0 1 116 152" stroke="#3B82F6" stroke-width="6.5" stroke-linecap="round" fill="none"/>
  <path d="M120 62 A36 36 0 0 1 120 138" stroke="#3B82F6" stroke-width="5" stroke-linecap="round" fill="none"/>
  <circle cx="110" cy="34" r="7" fill="#3B82F6"/>
  <circle cx="110" cy="166" r="7" fill="#3B82F6"/>
  <circle cx="166" cy="100" r="7.5" fill="#3B82F6"/>
  <circle cx="100" cy="100" r="8.5" fill="#0A1E38"/>
  <path d="M100 48v43M100 109v43M48 100h43M109 100h43" stroke="#0A1E38" stroke-width="2.8" stroke-linecap="round"/>
  <defs><clipPath id="L"><rect width="100" height="200"/></clipPath></defs>
</svg>